name C:\Users\u0101727\Documents\MyRepositories\paper-ad\predictivesimulations_2d/Results/PredSim_2D/IK_c27.mot
datacolumns 11
datarows 38
range 0.00000000 0.42328275
endheader
time	pelvis_tilt	pelvis_tx	pelvis_ty	hip_flexion_l	hip_flexion_r	knee_angle_l	knee_angle_r	ankle_angle_l	ankle_angle_r	lumbar_extension	
          0.00000000	        -19.12388873	          0.00000000	          0.87032355	         -2.52871835	         43.57607979	        -12.43725114	        -10.02870341	         -5.65775619	         14.95757689	          8.87280491	
          0.01144007	        -19.04976737	          0.01876604	          0.86725696	         -2.83077359	         43.63301077	        -13.85971986	        -10.79606448	         -7.66593695	         14.46475308	          9.01959472	
          0.02288015	        -18.95470834	          0.03816100	          0.86435129	         -3.00572418	         43.44916862	        -15.50557063	        -12.21299748	        -10.04483943	         13.87433463	          9.20941405	
          0.03432022	        -18.85918026	          0.05775474	          0.86205779	         -3.04319108	         43.11343665	        -17.30409257	        -14.05229995	        -12.66003112	         13.23649000	          9.41797309	
          0.04576030	        -18.79259000	          0.07677103	          0.86100452	         -2.91386325	         42.83551141	        -19.13877391	        -15.87658479	        -15.05531958	         12.62083253	          9.59383521	
          0.05720037	        -18.77064528	          0.09480964	          0.86143531	         -2.57980740	         42.58710830	        -20.86870599	        -17.56142408	        -16.98440268	         12.06892700	          9.71729427	
          0.06864045	        -18.78165700	          0.11202280	          0.86303293	         -2.06147321	         42.29968393	        -22.45936524	        -19.02964250	        -18.46665974	         11.61181927	          9.80121767	
          0.08008052	        -18.80553956	          0.12874743	          0.86527526	         -1.40744479	         41.91305729	        -23.98918003	        -20.25361548	        -19.53138904	         11.25459010	          9.86734292	
          0.09152060	        -18.82939486	          0.14519667	          0.86776255	         -0.64425591	         41.40115631	        -25.50929174	        -21.23506678	        -20.20521117	         10.98387648	          9.92726906	
          0.10296067	        -18.84736707	          0.16147180	          0.87028459	          0.21363292	         40.76367665	        -27.03054022	        -21.99447852	        -20.51609626	         10.77654656	          9.98530354	
          0.11440074	        -18.85642678	          0.17761942	          0.87274302	          1.15982261	         40.01116457	        -28.54574859	        -22.55716262	        -20.48920549	         10.60923359	         10.04216313	
          0.12584082	        -18.85505016	          0.19366595	          0.87509036	          2.18722411	         39.15469818	        -30.04479831	        -22.94249488	        -20.15115663	         10.45735724	         10.09808795	
          0.13728089	        -18.84320137	          0.20961567	          0.87732829	          3.28751116	         38.20784029	        -31.51686804	        -23.16935422	        -19.52811584	         10.29019281	         10.15264956	
          0.14872097	        -18.82205500	          0.22544386	          0.87952025	          4.45894255	         37.18574472	        -32.94202713	        -23.25264796	        -18.64575367	         10.07735824	         10.20367435	
          0.16016104	        -18.79340824	          0.24111781	          0.88174961	          5.69897374	         36.09929129	        -34.30042885	        -23.19963449	        -17.52963769	          9.79127482	         10.24911217	
          0.17160112	        -18.75882240	          0.25661006	          0.88408568	          7.00344434	         34.95691288	        -35.57453859	        -23.01520918	        -16.20566848	          9.40718301	         10.28750211	
          0.18304119	        -18.71947478	          0.27189897	          0.88657449	          8.36747158	         33.76840296	        -36.74738020	        -22.70933565	        -14.70020271	          8.90871483	         10.31764146	
          0.19448127	        -18.67628773	          0.28696672	          0.88923768	          9.78621221	         32.54758377	        -37.80108021	        -22.30086709	        -13.04015433	          8.28944524	         10.33825043	
          0.20592134	        -18.63019461	          0.30179926	          0.89207445	         11.25334040	         31.31167228	        -38.71836951	        -21.81604881	        -11.25309589	          7.54769060	         10.34806679	
          0.21736141	        -18.58235733	          0.31638458	          0.89507175	         12.76250636	         30.07961279	        -39.48097555	        -21.28499957	         -9.36700121	          6.68772290	         10.34569000	
          0.22880149	        -18.53436476	          0.33071312	          0.89821318	         14.30815947	         28.86832280	        -40.07044430	        -20.73476825	         -7.40999363	          5.72829549	         10.32968855	
          0.24024156	        -18.48825059	          0.34478642	          0.90147542	         15.88022491	         27.68770250	        -40.47318128	        -20.18940041	         -5.41058906	          4.72903336	         10.29956487	
          0.25168164	        -18.44556090	          0.35861551	          0.90480567	         17.46848647	         26.54953619	        -40.67347012	        -19.68547759	         -3.39747803	          3.81215736	         10.25466586	
          0.26312171	        -18.40719569	          0.37224083	          0.90806730	         19.05762165	         25.45417552	        -40.65512597	        -19.28898329	         -1.40095461	          3.12510361	         10.19672568	
          0.27456179	        -18.37605296	          0.38563466	          0.91104262	         20.62980812	         24.46440722	        -40.42127310	        -18.74069852	          0.54930083	          3.02197299	         10.12036701	
          0.28600186	        -18.34956742	          0.39898602	          0.91327780	         22.15358858	         23.43203660	        -40.04109025	        -18.10648296	          2.42925731	          3.13336841	         10.04243641	
          0.29744194	        -18.32495990	          0.41238166	          0.91470190	         23.63639441	         22.27593861	        -39.51881638	        -17.58769715	          4.21944646	          2.91415171	          9.96922301	
          0.30888201	        -18.30592708	          0.42567140	          0.91565044	         25.09447832	         21.13436081	        -38.81209096	        -17.05859590	          5.90040647	          2.65431897	          9.88449218	
          0.32032208	        -18.29404752	          0.43888090	          0.91618964	         26.50705682	         20.00793415	        -37.90800410	        -16.58047654	          7.45308316	          2.68175715	          9.79154185	
          0.33176216	        -18.28979612	          0.45204291	          0.91622632	         27.86670939	         18.88233410	        -36.80432476	        -16.16802149	          8.86328726	          2.90074141	          9.69353982	
          0.34320223	        -18.29676319	          0.46506658	          0.91572960	         29.17229456	         17.85458404	        -35.49273491	        -15.53314632	         10.12215635	          3.70276278	          9.58023682	
          0.35464231	        -18.31602111	          0.47807706	          0.91445115	         30.41898287	         16.77328861	        -34.05745324	        -14.78192512	         11.23139793	          4.71394759	          9.46623605	
          0.36608238	        -18.34321962	          0.49115448	          0.91233302	         31.62686509	         15.56286390	        -32.56859924	        -14.13779812	         12.20075865	          4.98571654	          9.35699987	
          0.37752246	        -18.37860265	          0.50419903	          0.90983209	         32.80398209	         14.37810174	        -30.99168159	        -13.44545442	         13.03871671	          4.85498088	          9.23884804	
          0.38896253	        -18.42416893	          0.51727492	          0.90729690	         33.93623684	         13.20427703	        -29.33044280	        -12.73886231	         13.75482529	          4.58170061	          9.11870095	
          0.40040261	        -18.48034187	          0.53043807	          0.90499489	         35.01769621	         12.03942985	        -27.59327271	        -12.02211809	         14.36016533	          4.19175171	          9.00073874	
          0.41184268	        -18.54763950	          0.54376021	          0.90309981	         36.03997387	         10.86199205	        -25.80083685	        -11.27231215	         14.86592223	          3.73380768	          8.89142249	
          0.42328275	        -18.62464825	          0.55730735	          0.90163507	         36.99205575	          9.65673516	        -23.98482641	        -10.49557305	         15.28079470	          3.30266109	          8.79635361	
